<svg xmlns="http://www.w3.org/2000/svg" width="256" height="256" viewBox="0 0 100 100"><rect width="100" height="100" rx="20" fill="#323335"></rect><path fill="#f7f5f6" d="M8.06 30.40L8.06 30.40L25.92 30.40Q32.08 30.40 36.62 32.02Q41.15 33.65 43.95 37.51Q46.75 41.38 46.75 47.14L46.75 47.14L46.75 52.86Q46.75 61.82 40.70 65.90L40.70 65.90Q35.16 69.60 25.92 69.60L25.92 69.60L8.06 69.60Q7.44 69.60 6.99 69.15Q6.54 68.70 6.54 68.09L6.54 68.09L6.54 31.91Q6.54 31.30 6.99 30.85Q7.44 30.40 8.06 30.40ZM26.20 41.32L21.10 41.32L21.10 58.68L26.20 58.68Q28.83 58.68 30.37 57.42Q31.91 56.16 31.91 53.86L31.91 53.86L31.91 46.14Q31.91 43.84 30.37 42.58Q28.83 41.32 26.20 41.32L26.20 41.32ZM72.85 31.91L72.85 58.12L91.94 58.12Q92.56 58.12 93.01 58.57Q93.46 59.02 93.46 59.63L93.46 59.63L93.46 68.09Q93.46 68.70 93.01 69.15Q92.56 69.60 91.94 69.60L91.94 69.60L59.24 69.60Q58.62 69.60 58.18 69.15Q57.73 68.70 57.73 68.09L57.73 68.09L57.73 31.91Q57.73 31.30 58.18 30.85Q58.62 30.40 59.24 30.40L59.24 30.40L71.34 30.40Q71.95 30.40 72.40 30.85Q72.85 31.30 72.85 31.91L72.85 31.91Z"></path></svg>