<svg version="1" xmlns="http://www.w3.org/2000/svg" width="346.667" height="346.667" viewBox="0 0 260.000000 260.000000"><path d="M18.9 93.2c-.1 1.7-.1 87.7 0 90.2.1 1.8 1.1 1.8 20.4 1.4 17.4-.4 21.1-.8 26.6-2.7 20.3-7 29.7-21.6 29.3-45.6-.3-23-11.6-37.6-33.3-43.2-1.3-.3-11.5-.8-22.6-1-16.5-.4-20.3-.2-20.4.9zm42.6 17.5c8.7 4.5 12.3 11.3 13.2 24.3 1.4 22.6-8.7 34-29.7 33.6l-6.5-.1-.1-30.2-.1-30.3 9.6.4c7.3.2 10.6.8 13.6 2.3zM151.8 92.7c-.3.7-.2 85.1.1 90.5.1 1.7 2.2 1.8 28.4 1.8h28.3v-8c0-6.6-.2-8-1.5-8-.9-.1-9.3-.1-18.7-.1l-17-.1-.1-38.1V92.5l-9.6-.3c-5.2-.1-9.7.1-9.9.5zM115.1 167.1c-5.3 3.2-6.1 12.7-1.4 17.1 3.6 3.4 12.3 3.3 15.7-.2 1.4-1.4 2.7-3.7 3-5.2.7-4-1.2-9.6-3.8-11.3-3.5-2.3-10-2.5-13.5-.4zM226.2 166.6c-3.5 1.4-6.4 6.5-5.7 10 .2 1 .4 2.5.4 3.2.1.8 1.4 2.7 3 4.3 4.5 4.4 13.2 3.8 16.5-1.3 3.4-5.2 2.2-13.3-2.2-15.7-3.3-1.7-8.6-2-12-.5z"/></svg>