<?xml version="1.0" standalone="no"?>
<!DOCTYPE svg PUBLIC "-//W3C//DTD SVG 20010904//EN"
 "http://www.w3.org/TR/2001/REC-SVG-20010904/DTD/svg10.dtd">
<svg version="1.0" xmlns="http://www.w3.org/2000/svg"
 width="260.000000pt" height="260.000000pt" viewBox="0 0 260.000000 260.000000"
 preserveAspectRatio="xMidYMid meet">
<metadata>
Created by potrace 1.11, written by Peter Selinger 2001-2013
</metadata>
<g transform="translate(0.000000,260.000000) scale(0.100000,-0.100000)"
fill="#000000" stroke="none">
<path d="M188 1673 c-2 -4 -4 -213 -4 -463 l1 -455 185 0 c184 1 238 5 295 26
165 61 257 173 281 346 13 91 11 135 -9 243 -6 32 -47 120 -65 140 -77 87
-138 125 -243 153 -61 16 -434 24 -441 10z m402 -170 c61 -21 94 -48 119 -98
32 -63 34 -78 35 -195 0 -91 -3 -112 -24 -155 -49 -100 -116 -137 -250 -140
l-85 -1 0 303 0 304 81 -2 c44 -1 100 -8 124 -16z"/>
<path d="M1515 1218 l0 -463 285 0 285 0 0 70 c1 39 0 75 -2 80 -2 7 -70 10
-186 10 l-182 -1 0 383 0 383 -100 0 -100 0 0 -462z"/>
<path d="M1170 942 c-52 -18 -82 -101 -55 -152 21 -41 44 -54 95 -56 39 -2 54
3 79 24 31 27 37 47 32 119 -2 43 -96 83 -151 65z"/>
<path d="M2265 936 c-17 -7 -36 -20 -43 -29 -18 -21 -19 -85 -3 -124 28 -68
161 -68 193 1 8 17 13 41 12 54 -1 12 -2 29 -3 36 -4 51 -96 87 -156 62z"/>
</g>
</svg>
