<svg width="28" height="28" viewBox="0 0 28 28" fill="none" xmlns="http://www.w3.org/2000/svg">
<path d="M14 0C6.28035 0 0 6.28035 0 14C0 21.7196 6.28035 28 14 28C21.7196 28 28 21.7196 28 14C28 6.28035 21.7196 0 14 0ZM23.2564 6.45614C24.9219 8.491 25.9304 11.0827 25.9567 13.9052C25.5625 13.8218 21.6089 13.0199 17.63 13.5203C17.3053 12.7277 16.9988 12.0304 16.579 11.1712C21.0004 9.366 23.0043 6.79717 23.2564 6.45614ZM21.927 5.07331C21.7119 5.37967 19.9118 7.79913 15.6597 9.39293C13.7001 5.79267 11.5283 2.83506 11.1977 2.39248C14.9899 1.47835 18.9861 2.46417 21.927 5.07331ZM8.91602 3.19629C9.23131 3.62865 11.3682 6.58994 13.3496 10.1121C7.75594 11.5975 2.82924 11.5761 2.29442 11.5691C3.06984 7.85835 5.57053 4.77428 8.91602 3.19629ZM2.04185 14.0182C2.04185 13.896 2.04428 13.7743 2.04795 13.6528C2.57115 13.6635 8.36602 13.7382 14.3378 11.951C14.6801 12.621 15.0072 13.3011 15.3073 13.9804C10.9832 15.1984 7.05442 18.6956 5.11604 22.0138C3.20611 19.8938 2.04185 17.0896 2.04185 14.0182ZM6.65999 23.452C7.9091 20.8986 11.2991 17.6024 16.1201 15.9577C17.799 20.3205 18.4933 23.9769 18.6711 25.026C14.8261 26.6638 10.2025 26.2145 6.65999 23.452ZM20.6814 23.9312C20.5589 23.2038 19.9224 19.7032 18.3583 15.4052C22.1056 14.8053 25.3979 15.7873 25.807 15.9164C25.274 19.2437 23.3641 22.1172 20.6814 23.9312Z" fill="#EA4C89"></path>
</svg>
