<svg width="28" height="28" fill="none" xmlns="http://www.w3.org/2000/svg"><path d="M14 0C6.28 0 0 6.28 0 14s6.28 14 14 14 14-6.28 14-14S21.72 0 14 0Zm9.256 6.456a11.901 11.901 0 0 1 2.7 7.45c-.393-.084-4.347-.886-8.326-.386a37.015 37.015 0 0 0-1.051-2.349C21 9.366 23.004 6.797 23.256 6.456Zm-1.329-1.383c-.215.307-2.015 2.726-6.267 4.32a63.822 63.822 0 0 0-4.462-7 11.927 11.927 0 0 1 10.729 2.68ZM8.916 3.196a76.299 76.299 0 0 1 4.434 6.916C7.756 11.598 2.83 11.576 2.294 11.57a12.002 12.002 0 0 1 6.622-8.373ZM2.042 14.018c0-.122.002-.244.006-.365.523.01 6.318.085 12.29-1.702.342.67.67 1.35.97 2.03-4.325 1.217-8.254 4.715-10.192 8.033a11.91 11.91 0 0 1-3.074-7.996Zm4.618 9.434c1.25-2.553 4.64-5.85 9.46-7.494 1.679 4.362 2.373 8.019 2.551 9.068A11.934 11.934 0 0 1 6.66 23.452Zm14.021.48c-.122-.728-.759-4.229-2.323-8.527 3.748-.6 7.04.382 7.449.511a11.979 11.979 0 0 1-5.126 8.015Z" fill="#EA4C89"/></svg>