<svg width="29" height="28" fill="none" xmlns="http://www.w3.org/2000/svg"><path d="M9.605 22.546c0 .115-.133.208-.3.208-.192.017-.325-.075-.325-.208 0-.116.133-.209.301-.209.174-.017.324.075.324.209Zm-1.8-.261c-.04.116.075.249.249.284.15.058.324 0 .359-.116.034-.116-.076-.249-.25-.301-.15-.04-.318.017-.358.133Zm2.559-.098c-.168.04-.284.15-.267.283.018.116.168.191.342.15.168-.04.284-.15.266-.265-.017-.11-.173-.186-.341-.168ZM14.174 0C6.143 0 0 6.097 0 14.127c0 6.421 4.041 11.916 9.814 13.85.74.133 1.001-.325 1.001-.701 0-.36-.017-2.34-.017-3.555 0 0-4.053.868-4.904-1.726 0 0-.66-1.684-1.61-2.119 0 0-1.325-.909.093-.891 0 0 1.442.116 2.235 1.494 1.268 2.235 3.393 1.592 4.22 1.21.134-.927.51-1.57.927-1.951-3.236-.36-6.502-.828-6.502-6.398 0-1.592.44-2.392 1.367-3.41-.151-.377-.643-1.928.15-3.932 1.21-.376 3.995 1.563 3.995 1.563a13.603 13.603 0 0 1 3.636-.492c1.233 0 2.478.168 3.636.492 0 0 2.785-1.945 3.995-1.563.793 2.01.301 3.555.15 3.932.927 1.024 1.494 1.823 1.494 3.41 0 5.587-3.41 6.033-6.646 6.398.532.457.984 1.325.984 2.686 0 1.951-.018 4.366-.018 4.84 0 .377.267.834 1.002.7 5.79-1.921 9.716-7.416 9.716-13.837C28.718 6.097 22.204 0 14.174 0ZM5.628 19.97c-.076.057-.058.19.04.3.093.093.226.133.301.058.076-.058.058-.191-.04-.301-.093-.093-.226-.133-.301-.058Zm-.626-.47c-.04.075.018.168.134.226.092.058.208.04.249-.04.04-.076-.018-.169-.134-.226-.115-.035-.208-.018-.249.04Zm1.876 2.061c-.092.076-.058.25.076.36.133.132.3.15.376.057.075-.075.04-.249-.075-.359-.128-.133-.301-.15-.377-.058Zm-.66-.85c-.092.057-.092.208 0 .34.093.134.25.192.325.134.092-.075.092-.226 0-.359-.082-.133-.232-.191-.325-.116Z" fill="#8957E5"/></svg>