<svg xmlns="http://www.w3.org/2000/svg" width="256" height="256" viewBox="0 0 100 100"><rect width="100" height="100" rx="20" fill="#323335"/><path fill="#f7f5f6" d="M8.06 30.4h17.86q6.16 0 10.7 1.62 4.53 1.63 7.33 5.49 2.8 3.87 2.8 9.63v5.72q0 8.96-6.05 13.04-5.54 3.7-14.78 3.7H8.06q-.62 0-1.07-.45-.45-.45-.45-1.06V31.91q0-.61.45-1.06.45-.45 1.07-.45ZM26.2 41.32h-5.1v17.36h5.1q2.63 0 4.17-1.26t1.54-3.56v-7.72q0-2.3-1.54-3.56-1.54-1.26-4.17-1.26Zm46.65-9.41v26.21h19.09q.62 0 1.07.45.45.45.45 1.06v8.46q0 .61-.45 1.06-.45.45-1.07.45h-32.7q-.62 0-1.06-.45-.45-.45-.45-1.06V31.91q0-.61.45-1.06.44-.45 1.06-.45h12.1q.61 0 1.06.45.45.45.45 1.06Z"/></svg>